<?xml version="1.0" encoding="UTF-8"?>
<svg version="1.1" xmlns="http://www.w3.org/2000/svg" width="1024" height="1024">
<path d="M0 0 C337.92 0 675.84 0 1024 0 C1024 337.92 1024 675.84 1024 1024 C686.08 1024 348.16 1024 0 1024 C0 686.08 0 348.16 0 0 Z " fill="#00010D" transform="translate(0,0)"/>
<path d="M0 0 C2.73279465 2.45377058 4.3751318 5.1311696 6.1875 8.3125 C6.79779053 9.37782959 7.40808105 10.44315918 8.03686523 11.54077148 C8.68469971 12.68231689 9.33253418 13.8238623 10 15 C10.68054401 16.19048693 11.36162016 17.38066982 12.04321289 18.57055664 C13.40612108 20.9509282 14.7668636 23.33251305 16.12548828 25.71533203 C18.54989621 29.96357171 20.98845235 34.20342532 23.4375 38.4375 C23.86297119 39.17371582 24.28844238 39.90993164 24.72680664 40.66845703 C28.74553977 47.60115732 32.84321344 54.4867886 36.9375 61.375 C43.75427703 72.84369071 50.44925599 84.3771444 57 96 C57.45197754 96.79374023 57.90395508 97.58748047 58.36962891 98.40527344 C62.08420255 104.98274045 64.39319578 109.98795624 64.375 117.6875 C64.37338867 118.39575928 64.37177734 119.10401855 64.37011719 119.83374023 C64.16121525 128.82164386 60.41198402 135.39313101 56 143 C55.63021545 144.32368738 55.28797019 145.65613912 55 147 C55.7734375 146.97679687 56.546875 146.95359375 57.34375 146.9296875 C72.69031013 146.66378176 82.22891982 151.5990869 93.4296875 162.22265625 C97.25481673 166.35588859 99.99000791 170.8228281 102.72558594 175.72851562 C104.28382443 178.50588171 105.87964127 181.26031972 107.4765625 184.015625 C110.10179301 188.54750346 112.7187053 193.0839994 115.328125 197.625 C120.3206063 206.30447209 125.40476985 214.92831472 130.50634766 223.54394531 C136.66209958 233.94007694 142.79611666 244.3461429 148.83349609 254.81152344 C153.98556033 263.72934602 159.24169976 272.58543203 164.48925781 281.44726562 C171.82466966 293.84207271 179.08846652 306.27854718 186.33984375 318.72265625 C188.78619294 322.92042116 191.23696174 327.11555728 193.69140625 331.30859375 C203.89705388 348.75338542 203.89705388 348.75338542 208.625 357.25 C211.90143184 363.13676752 215.3283543 368.92142541 218.8125 374.6875 C223.5049255 382.45342312 228.07083961 390.28159049 232.54321289 398.17626953 C235.05622217 402.61050287 237.59542344 407.02458167 240.19921875 411.40625 C240.71154053 412.27306396 241.2238623 413.13987793 241.75170898 414.03295898 C242.72722502 415.67990727 243.7094827 417.32288698 244.69946289 418.96118164 C245.13379639 419.69715576 245.56812988 420.43312988 246.015625 421.19140625 C246.40008789 421.83279541 246.78455078 422.47418457 247.18066406 423.13500977 C248 425 248 425 248 429 C248.5775 429.185625 249.155 429.37125 249.75 429.5625 C255.43231766 433.19286962 257.16315213 440.86325825 259 447 C259.66 447 260.32 447 261 447 C261.83819158 448.62249941 262.6704116 450.24808497 263.5 451.875 C263.9640625 452.77992188 264.428125 453.68484375 264.90625 454.6171875 C266 457 266 457 266 459 C266.66 459 267.32 459 268 459 C268.51949219 460.0621875 269.03898438 461.124375 269.57421875 462.21875 C273.94958809 471.23234692 273.94958809 471.23234692 279 479.875 C281 483 281 483 281 485 C281.66 485 282.32 485 283 485 C283.33 486.32 283.66 487.64 284 489 C268.95241222 489.09373321 253.9048472 489.16412047 238.85702896 489.20724869 C231.86894174 489.22781245 224.88103666 489.25581337 217.89306641 489.30175781 C211.14330075 489.34611468 204.39372402 489.36916985 197.64382172 489.37950897 C195.0747455 489.38687268 192.50567905 489.40125202 189.93668365 489.42292023 C186.32507891 489.45215775 182.71424401 489.45594738 179.10253906 489.45410156 C178.05164597 489.46848267 177.00075287 489.48286377 175.91801453 489.49768066 C161.85393621 489.42042067 149.23942437 483.57935012 138.98779297 474.0546875 C132.52210806 467.37141506 128.0816798 458.89632912 123.625 450.8125 C122.48718041 448.77389979 121.34785612 446.73613869 120.20703125 444.69921875 C119.65869629 443.72001465 119.11036133 442.74081055 118.54541016 441.73193359 C116.52518927 438.16064265 114.43865745 434.63400446 112.3125 431.125 C111.96598389 430.55217285 111.61946777 429.9793457 111.26245117 429.38916016 C110.55777654 428.2252281 109.8527764 427.06149305 109.14746094 425.89794922 C106.89420196 422.17096299 104.66183558 418.43180478 102.4375 414.6875 C101.99510986 413.95096191 101.55271973 413.21442383 101.09692383 412.45556641 C98 407.2288521 98 407.2288521 98 405 C73.00923747 404.62597792 48.01889519 404.34396741 23.02589607 404.17100525 C11.42060835 404.0885543 -0.18293897 403.97618601 -11.78710938 403.79296875 C-21.90333635 403.63332086 -32.018303 403.53023077 -42.1357547 403.49458408 C-47.49205277 403.47374896 -52.84474602 403.42492675 -58.19988632 403.30831909 C-63.24574111 403.1993408 -68.28652474 403.16627704 -73.3334446 403.1902771 C-75.18074106 403.18589049 -77.02821441 403.15425266 -78.87449074 403.0927124 C-88.42708868 402.55099444 -88.42708868 402.55099444 -96.69623804 406.53686142 C-99.78328754 410.33360052 -101.96698331 414.49925702 -104.01029229 418.9258976 C-105.59258194 422.24185718 -107.51385443 425.34393225 -109.4140625 428.484375 C-110.12227648 429.69777186 -110.82831214 430.91244525 -111.53125 432.12890625 C-111.87671875 432.72590332 -112.2221875 433.32290039 -112.578125 433.93798828 C-113.28003985 435.15291646 -113.9815326 436.36808861 -114.68261719 437.58349609 C-123.30464032 452.51111863 -131.88190094 467.18984531 -146.0546875 477.52734375 C-148.01344232 478.92835085 -148.01344232 478.92835085 -149.52734375 480.6015625 C-151.56840686 482.53976036 -153.93926242 483.19118577 -156.57421875 484.05859375 C-158.91705603 484.89232555 -158.91705603 484.89232555 -160.61032772 485.9504118 C-166.34503355 489.25628647 -171.18518455 489.55614394 -177.71118164 489.4699707 C-178.75449142 489.4721611 -179.79780121 489.4743515 -180.87272644 489.47660828 C-184.30219826 489.47890924 -187.73079967 489.45271765 -191.16015625 489.42578125 C-193.55333687 489.42085389 -195.94652136 489.41755726 -198.33970642 489.41581726 C-203.34712095 489.40818926 -208.35424843 489.38766489 -213.36157227 489.35668945 C-219.77281534 489.3170944 -226.18387201 489.29907469 -232.59522343 489.28938007 C-238.72105946 489.27939497 -244.84685042 489.25952679 -250.97265625 489.23828125 C-252.13775286 489.2348855 -253.30284946 489.23148975 -254.50325203 489.2279911 C-257.80829308 489.21637976 -261.11321873 489.1978532 -264.41821289 489.17700195 C-265.39035736 489.17431305 -266.36250183 489.17162415 -267.36410522 489.16885376 C-272.3460114 489.12954251 -277.08828071 488.84601238 -282 488 C-279.87594923 482.5443163 -277.72823857 477.18365329 -275 472 C-274.34 472 -273.68 472 -273 472 C-272.85014648 471.46560303 -272.70029297 470.93120605 -272.54589844 470.38061523 C-270.61217189 464.01623431 -267.72171424 458.70982878 -264.25 453.0625 C-263.07278599 451.11023824 -261.89706533 449.15707539 -260.72265625 447.203125 C-260.1105127 446.18798828 -259.49836914 445.17285156 -258.86767578 444.12695312 C-255.74175775 438.89338996 -252.71873284 433.60127198 -249.6875 428.3125 C-244.46752056 419.2275001 -239.17100819 410.19118117 -233.8125 401.1875 C-229.11297097 393.29064898 -224.46718754 385.37050917 -219.9375 377.375 C-214.9159716 368.51575498 -209.71003294 359.77487598 -204.44750977 351.05688477 C-201.59973049 346.33837159 -198.76217826 341.61690509 -196 336.84765625 C-195.32638428 335.6860498 -195.32638428 335.6860498 -194.63916016 334.50097656 C-193.83185891 333.1034006 -193.02898923 331.70324909 -192.23193359 330.29980469 C-188.98104607 324.67704384 -185.56925015 319.38980081 -179.6875 316.25 C-178.99011719 315.86328125 -178.29273438 315.4765625 -177.57421875 315.078125 C-169.1012942 311.52952534 -161.07737277 311.75942131 -152 311.875 C-150.63932951 311.88505022 -149.27865183 311.89417246 -147.91796875 311.90234375 C-144.61179353 311.9257918 -141.3059912 311.95861144 -138 312 C-138.47848389 311.33033203 -138.95696777 310.66066406 -139.44995117 309.97070312 C-140.07877197 309.08318359 -140.70759277 308.19566406 -141.35546875 307.28125 C-142.28975708 305.96737305 -142.28975708 305.96737305 -143.24291992 304.62695312 C-151.64774751 292.06116948 -153.12429559 275.66845222 -150.453125 260.99609375 C-149.51643986 258.17278336 -148.3496286 255.65392084 -147 253 C-146.67209473 252.33597168 -146.34418945 251.67194336 -146.00634766 250.98779297 C-140.71665718 240.32245745 -134.75334277 230.1367712 -128.47265625 220.03125 C-125.92376406 215.91462111 -123.5950141 211.70126574 -121.31640625 207.4296875 C-118.43697248 202.11512428 -115.25143807 196.97712406 -112.01953125 191.87109375 C-104.99082429 180.91636713 -104.99082429 180.91636713 -100.46484375 168.7890625 C-99.8689984 166.49580897 -98.68714886 165.61685099 -97 164 C-96.67 163.01 -96.34 162.02 -96 161 C-95.34 161 -94.68 161 -94 161 C-94 160.34 -94 159.68 -94 159 C-93.34 159 -92.68 159 -92 159 C-91.01 156.03 -90.02 153.06 -89 150 C-88.34 150 -87.68 150 -87 150 C-86.7525 149.175 -86.505 148.35 -86.25 147.5 C-84.80820578 143.46297619 -83.00171761 139.78331507 -81 136 C-80.59394531 135.22914063 -80.18789063 134.45828125 -79.76953125 133.6640625 C-78.04828844 130.4757912 -76.4076173 127.50930798 -74.13671875 124.671875 C-71.64055698 121.55053195 -69.47379478 118.29516224 -67.3125 114.9375 C-66.70825195 114.02000977 -66.70825195 114.02000977 -66.09179688 113.08398438 C-64.18435672 110.1285704 -62.51792175 107.52011222 -62 104 C-61.34 104 -60.68 104 -60 104 C-59.814375 103.05125 -59.62875 102.1025 -59.4375 101.125 C-58.20581301 96.77478637 -55.76235201 93.57813154 -53.046875 90.015625 C-50.64652771 86.47923548 -48.66820583 82.80024592 -46.64648438 79.03759766 C-43.82027103 73.82351901 -40.84268414 68.69697255 -37.875 63.5625 C-36.89539307 61.86613403 -36.89539307 61.86613403 -35.89599609 60.13549805 C-30.04485027 50.02093168 -24.04960704 39.99672769 -18 30 C-16.35186168 27.27221701 -14.70582194 24.54318728 -13.0625 21.8125 C-12.69568115 21.20325684 -12.3288623 20.59401367 -11.95092773 19.96630859 C-9.56278018 15.98329283 -7.28602447 11.95146154 -5.0625 7.875 C-3.51588791 5.14568454 -1.7850965 2.57847272 0 0 Z " fill="#9545EC" transform="translate(512,269)"/>
<path d="M0 0 C2.61712286 2.36271395 4.17321749 4.83435853 5.86328125 7.91796875 C6.41371094 8.91368896 6.96414063 9.90940918 7.53125 10.93530273 C8.1190625 12.00852783 8.706875 13.08175293 9.3125 14.1875 C10.5672333 16.45410967 11.82379405 18.71970853 13.08203125 20.984375 C13.4037027 21.56368271 13.72537415 22.14299042 14.05679321 22.73985291 C17.45873924 28.8517439 20.96820657 34.89982639 24.5 40.9375 C25.06243408 41.90002686 25.62486816 42.86255371 26.2043457 43.85424805 C28.81246662 48.3057259 31.44123337 52.74358243 34.1015625 57.1640625 C36.74517499 61.55926303 39.32013395 65.99030687 41.875 70.4375 C46.16001798 77.87151145 50.51707605 85.26066939 54.90304565 92.63552856 C61.58087519 103.86453425 68.13144376 115.15892687 74.58544922 126.51806641 C80.23912711 136.43786093 85.92118035 146.34887351 91.87890625 156.08984375 C95 161.40766551 95 161.40766551 95 165 C95.66 165.33 96.32 165.66 97 166 C95.52955199 165.97787697 95.52955199 165.97787697 94.02939796 165.95530701 C70.15919617 165.59986535 46.28933808 165.33707582 22.4170475 165.17100525 C10.8722889 165.08855524 -0.67072009 164.97618893 -12.21435547 164.79296875 C-22.2778448 164.63331776 -32.34006714 164.53023008 -42.40478766 164.49458408 C-47.73314845 164.47374942 -53.05788537 164.42493071 -58.38508224 164.30831909 C-63.40467916 164.1993356 -68.41917838 164.1662779 -73.43984604 164.1902771 C-75.27746864 164.1858907 -77.11526916 164.15425555 -78.95186615 164.0927124 C-88.46421515 163.5551846 -88.46421515 163.5551846 -96.69244814 167.53686142 C-99.77689516 171.33488732 -101.96265837 175.50109834 -104.00881314 179.9258976 C-105.59305747 183.24099903 -107.51406853 186.34367003 -109.4140625 189.484375 C-110.12226594 190.69777802 -110.82830026 191.91245212 -111.53125 193.12890625 C-111.87671875 193.72590332 -112.2221875 194.32290039 -112.578125 194.93798828 C-113.28003985 196.15291646 -113.9815326 197.36808861 -114.68261719 198.58349609 C-123.30464032 213.51111863 -131.88190094 228.18984531 -146.0546875 238.52734375 C-148.01344232 239.92835085 -148.01344232 239.92835085 -149.52734375 241.6015625 C-151.56840686 243.53976036 -153.93926242 244.19118577 -156.57421875 245.05859375 C-158.91705603 245.89232555 -158.91705603 245.89232555 -160.61032772 246.9504118 C-166.34503355 250.25628647 -171.18518455 250.55614394 -177.71118164 250.4699707 C-178.75449142 250.4721611 -179.79780121 250.4743515 -180.87272644 250.47660828 C-184.30219826 250.47890924 -187.73079967 250.45271765 -191.16015625 250.42578125 C-193.55333687 250.42085389 -195.94652136 250.41755726 -198.33970642 250.41581726 C-203.34712095 250.40818926 -208.35424843 250.38766489 -213.36157227 250.35668945 C-219.77281534 250.3170944 -226.18387201 250.29907469 -232.59522343 250.28938007 C-238.72105946 250.27939497 -244.84685042 250.25952679 -250.97265625 250.23828125 C-252.13775286 250.2348855 -253.30284946 250.23148975 -254.50325203 250.2279911 C-257.80829308 250.21637976 -261.11321873 250.1978532 -264.41821289 250.17700195 C-265.39035736 250.17431305 -266.36250183 250.17162415 -267.36410522 250.16885376 C-272.3460114 250.12954251 -277.08828071 249.84601238 -282 249 C-279.87594923 243.5443163 -277.72823857 238.18365329 -275 233 C-274.34 233 -273.68 233 -273 233 C-272.77521973 232.19840454 -272.77521973 232.19840454 -272.54589844 231.38061523 C-270.61217189 225.01623431 -267.72171424 219.70982878 -264.25 214.0625 C-263.07278599 212.11023824 -261.89706533 210.15707539 -260.72265625 208.203125 C-260.1105127 207.18798828 -259.49836914 206.17285156 -258.86767578 205.12695312 C-255.74175775 199.89338996 -252.71873284 194.60127198 -249.6875 189.3125 C-244.46752056 180.2275001 -239.17100819 171.19118117 -233.8125 162.1875 C-229.11297097 154.29064898 -224.46718754 146.37050917 -219.9375 138.375 C-214.9159716 129.51575498 -209.71003294 120.77487598 -204.44750977 112.05688477 C-201.59973049 107.33837159 -198.76217826 102.61690509 -196 97.84765625 C-195.55092285 97.07325195 -195.1018457 96.29884766 -194.63916016 95.50097656 C-193.83185891 94.1034006 -193.02898923 92.70324909 -192.23193359 91.29980469 C-188.98104607 85.67704384 -185.56925015 80.38980081 -179.6875 77.25 C-178.99011719 76.86328125 -178.29273438 76.4765625 -177.57421875 76.078125 C-169.1012942 72.52952534 -161.07737277 72.75942131 -152 72.875 C-150.63932951 72.88505022 -149.27865183 72.89417246 -147.91796875 72.90234375 C-144.61179353 72.9257918 -141.3059912 72.95861144 -138 73 C-138.33 72.01 -138.66 71.02 -139 70 C-138.42274044 70.3250395 -137.84548088 70.650079 -137.25072861 70.98496819 C-134.91734088 72.03727754 -133.52005199 72.24735149 -130.98834229 72.24050903 C-129.80631981 72.24463303 -129.80631981 72.24463303 -128.60041809 72.24884033 C-127.74518051 72.24164978 -126.88994293 72.23445923 -126.00878906 72.22705078 C-125.10112289 72.22734283 -124.19345673 72.22763489 -123.25828552 72.22793579 C-120.26063449 72.22654338 -117.26323257 72.21098625 -114.265625 72.1953125 C-112.18626033 72.19158206 -110.10689391 72.18873523 -108.02752686 72.18673706 C-102.55632672 72.17910308 -97.08523287 72.15945654 -91.61407471 72.1373291 C-86.03049151 72.11686565 -80.44689114 72.10773427 -74.86328125 72.09765625 C-63.90880748 72.07621049 -52.95441258 72.04207731 -42 72 C-41.56949844 71.22234787 -41.13899689 70.44469574 -40.69544983 69.64347839 C-39.0785358 66.72401896 -37.46057646 63.80514381 -35.8419342 60.88664246 C-35.14517245 59.62985154 -34.44881301 58.3728375 -33.75288391 57.11558533 C-29.43273676 49.31162993 -25.04068423 41.57496578 -20.390625 33.9609375 C-16.44166528 27.47136387 -12.67366134 20.87197627 -8.87084961 14.29614258 C-6.04569747 9.42898972 -3.2039512 4.62792952 0 0 Z " fill="#213795" transform="translate(512,508)"/>
<path d="M0 0 C2.73279465 2.45377058 4.3751318 5.1311696 6.1875 8.3125 C6.79779053 9.37782959 7.40808105 10.44315918 8.03686523 11.54077148 C8.68469971 12.68231689 9.33253418 13.8238623 10 15 C10.68054401 16.19048693 11.36162016 17.38066982 12.04321289 18.57055664 C13.40612108 20.9509282 14.7668636 23.33251305 16.12548828 25.71533203 C18.54989621 29.96357171 20.98845235 34.20342532 23.4375 38.4375 C23.86297119 39.17371582 24.28844238 39.90993164 24.72680664 40.66845703 C28.74553977 47.60115732 32.84321344 54.4867886 36.9375 61.375 C43.75427703 72.84369071 50.44925599 84.3771444 57 96 C57.45197754 96.79374023 57.90395508 97.58748047 58.36962891 98.40527344 C62.09201367 104.99657175 64.36030527 109.98011167 64.375 117.6875 C64.39949219 118.34427734 64.42398438 119.00105469 64.44921875 119.67773438 C64.5047086 129.24973409 59.37875908 137.56218562 54.8125 145.6875 C54.32692627 146.56051758 53.84135254 147.43353516 53.34106445 148.33300781 C50.19623254 153.95566418 46.95721176 159.51304671 43.61303711 165.01904297 C32.40487774 183.47467505 21.77609024 202.29035336 11 221 C-1.27043726 242.30415949 -13.56552957 263.5931006 -26.12353516 284.72949219 C-26.60226074 285.53676758 -27.08098633 286.34404297 -27.57421875 287.17578125 C-28.33203644 288.39137726 -28.33203644 288.39137726 -29.10516357 289.63153076 C-30.61057676 292.3077185 -31.80042281 294.84213219 -32.98013306 297.65979004 C-38.69616185 310.40441341 -38.69616185 310.40441341 -44.20970345 313.06717491 C-50.59698272 314.68026439 -57.11657433 314.18177113 -63.63671875 313.85546875 C-65.72837558 313.81998018 -67.82019161 313.7929584 -69.9120636 313.77400208 C-75.38927956 313.70182533 -80.85674797 313.5156225 -86.33013916 313.30462646 C-91.92643299 313.10939153 -97.52432126 313.02330714 -103.12304688 312.92773438 C-114.08628944 312.72463733 -125.04233114 312.40089908 -136 312 C-136.33 311.34 -136.66 310.68 -137 310 C-137.76957031 309.59910156 -138.53914063 309.19820312 -139.33203125 308.78515625 C-145.28044022 304.80503487 -148.74648272 295.1490413 -150.4375 288.3125 C-152.18744313 276.43648148 -152.51877284 263.85216055 -147 253 C-146.50814209 252.00395752 -146.50814209 252.00395752 -146.00634766 250.98779297 C-140.71665718 240.32245745 -134.75334277 230.1367712 -128.47265625 220.03125 C-125.92376406 215.91462111 -123.5950141 211.70126574 -121.31640625 207.4296875 C-118.43697248 202.11512428 -115.25143807 196.97712406 -112.01953125 191.87109375 C-104.99082429 180.91636713 -104.99082429 180.91636713 -100.46484375 168.7890625 C-99.8689984 166.49580897 -98.68714886 165.61685099 -97 164 C-96.67 163.01 -96.34 162.02 -96 161 C-95.34 161 -94.68 161 -94 161 C-94 160.34 -94 159.68 -94 159 C-93.34 159 -92.68 159 -92 159 C-91.01 156.03 -90.02 153.06 -89 150 C-88.34 150 -87.68 150 -87 150 C-86.7525 149.175 -86.505 148.35 -86.25 147.5 C-84.80820578 143.46297619 -83.00171761 139.78331507 -81 136 C-80.59394531 135.22914063 -80.18789063 134.45828125 -79.76953125 133.6640625 C-78.04828844 130.4757912 -76.4076173 127.50930798 -74.13671875 124.671875 C-71.64055698 121.55053195 -69.47379478 118.29516224 -67.3125 114.9375 C-66.70825195 114.02000977 -66.70825195 114.02000977 -66.09179688 113.08398438 C-64.18435672 110.1285704 -62.51792175 107.52011222 -62 104 C-61.34 104 -60.68 104 -60 104 C-59.7215625 102.576875 -59.7215625 102.576875 -59.4375 101.125 C-58.20581301 96.77478637 -55.76235201 93.57813154 -53.046875 90.015625 C-50.64652771 86.47923548 -48.66820583 82.80024592 -46.64648438 79.03759766 C-43.82027103 73.82351901 -40.84268414 68.69697255 -37.875 63.5625 C-37.22192871 62.43158936 -36.56885742 61.30067871 -35.89599609 60.13549805 C-30.04485027 50.02093168 -24.04960704 39.99672769 -18 30 C-16.35186168 27.27221701 -14.70582194 24.54318728 -13.0625 21.8125 C-12.69568115 21.20325684 -12.3288623 20.59401367 -11.95092773 19.96630859 C-9.56278018 15.98329283 -7.28602447 11.95146154 -5.0625 7.875 C-3.51588791 5.14568454 -1.7850965 2.57847272 0 0 Z " fill="#47B9F6" transform="translate(512,269)"/>
<path d="M0 0 C2.61712286 2.36271395 4.17321749 4.83435853 5.86328125 7.91796875 C6.41371094 8.91368896 6.96414063 9.90940918 7.53125 10.93530273 C8.1190625 12.00852783 8.706875 13.08175293 9.3125 14.1875 C10.5672333 16.45410967 11.82379405 18.71970853 13.08203125 20.984375 C13.4037027 21.56368271 13.72537415 22.14299042 14.05679321 22.73985291 C17.45873924 28.8517439 20.96820657 34.89982639 24.5 40.9375 C25.06243408 41.90002686 25.62486816 42.86255371 26.2043457 43.85424805 C28.81246662 48.3057259 31.44123337 52.74358243 34.1015625 57.1640625 C36.74517499 61.55926303 39.32013395 65.99030687 41.875 70.4375 C46.16001798 77.87151145 50.51707605 85.26066939 54.90304565 92.63552856 C61.58087519 103.86453425 68.13144376 115.15892687 74.58544922 126.51806641 C80.23912711 136.43786093 85.92118035 146.34887351 91.87890625 156.08984375 C95 161.40766551 95 161.40766551 95 165 C95.66 165.33 96.32 165.66 97 166 C78.26364429 166.02362548 59.52729171 166.04112174 40.79092407 166.05181217 C32.08635958 166.05691342 23.38180458 166.06386755 14.67724609 166.07543945 C-52.14246926 166.16218176 -52.14246926 166.16218176 -76.6875 165.62109375 C-77.50573242 165.60583208 -78.32396484 165.59057041 -79.16699219 165.57484627 C-81.36568697 165.5314492 -83.56350573 165.47471731 -85.76171875 165.41186523 C-86.93694092 165.38084213 -88.11216309 165.34981903 -89.32299805 165.31785583 C-92 165 -92 165 -94 163 C-93.70754395 162.5059668 -93.41508789 162.01193359 -93.11376953 161.50292969 C-91.78278769 159.25277316 -90.45387569 157.00140095 -89.125 154.75 C-88.66480469 153.97269531 -88.20460938 153.19539062 -87.73046875 152.39453125 C-87.28574219 151.64042969 -86.84101563 150.88632812 -86.3828125 150.109375 C-85.97434082 149.41811523 -85.56586914 148.72685547 -85.14501953 148.01464844 C-83.46044945 145.05066714 -82.08021893 142.2406568 -81 139 C-80.01 138.34 -79.02 137.68 -78 137 C-77.7497843 133.91634129 -77.7497843 133.91634129 -78 131 C-77.34 131 -76.68 131 -76 131 C-74.86516546 128.80751706 -74.86516546 128.80751706 -73.6875 125.625 C-72.1137242 122.24429642 -70.78456368 120.40048593 -68 118 C-68.66 117.67 -69.32 117.34 -70 117 C-69.34 117 -68.68 117 -68 117 C-68 116.01 -68 115.02 -68 114 C-66.68 114 -65.36 114 -64 114 C-64.20625 113.38125 -64.4125 112.7625 -64.625 112.125 C-64.74875 111.42375 -64.8725 110.7225 -65 110 C-63 108 -63 108 -61.4375 106.6875 C-59.61079682 104.54310932 -59.43328425 102.74413356 -59 100 C-58.67 99.67 -58.34 99.34 -58 99 C-58 98.01 -58 97.02 -58 96 C-57.34 96 -56.68 96 -56 96 C-55.62875 95.01 -55.62875 95.01 -55.25 94 C-53.68182955 90.23639093 -51.85494954 86.6288576 -50 83 C-49.01 83 -48.02 83 -47 83 C-45.20317184 79.19495213 -44.92650209 78.29399165 -46 74 C-76.03 74 -106.06 74 -137 74 C-137.66 72.68 -138.32 71.36 -139 70 C-138.42274044 70.3250395 -137.84548088 70.650079 -137.25072861 70.98496819 C-134.91734088 72.03727754 -133.52005199 72.24735149 -130.98834229 72.24050903 C-130.2003273 72.24325836 -129.41231232 72.24600769 -128.60041809 72.24884033 C-127.74518051 72.24164978 -126.88994293 72.23445923 -126.00878906 72.22705078 C-125.10112289 72.22734283 -124.19345673 72.22763489 -123.25828552 72.22793579 C-120.26063449 72.22654338 -117.26323257 72.21098625 -114.265625 72.1953125 C-112.18626033 72.19158206 -110.10689391 72.18873523 -108.02752686 72.18673706 C-102.55632672 72.17910308 -97.08523287 72.15945654 -91.61407471 72.1373291 C-86.03049151 72.11686565 -80.44689114 72.10773427 -74.86328125 72.09765625 C-63.90880748 72.07621049 -52.95441258 72.04207731 -42 72 C-41.56949844 71.22234787 -41.13899689 70.44469574 -40.69544983 69.64347839 C-39.0785358 66.72401896 -37.46057646 63.80514381 -35.8419342 60.88664246 C-35.14517245 59.62985154 -34.44881301 58.3728375 -33.75288391 57.11558533 C-29.43273676 49.31162993 -25.04068423 41.57496578 -20.390625 33.9609375 C-16.44166528 27.47136387 -12.67366134 20.87197627 -8.87084961 14.29614258 C-6.04569747 9.42898972 -3.2039512 4.62792952 0 0 Z " fill="#125FA8" transform="translate(512,508)"/>
<path d="M0 0 C2.63961912 2.37819812 4.19726782 4.88051552 5.8984375 7.98828125 C6.4545874 8.9949585 7.0107373 10.00163574 7.58374023 11.03881836 C8.17485596 12.1191333 8.76597168 13.19944824 9.375 14.3125 C14.77069958 24.0937649 20.33145485 33.74772681 26.17529297 43.26879883 C26.69365723 44.12755615 27.21202148 44.98631348 27.74609375 45.87109375 C28.20685303 46.62318115 28.6676123 47.37526855 29.14233398 48.15014648 C29.42536377 48.76059814 29.70839355 49.3710498 30 50 C29.505 50.99 29.505 50.99 29 52 C28.31761765 51.99777939 27.63523529 51.99555878 26.93217468 51.99327087 C19.84354169 51.97118377 12.75491844 51.95607901 5.66625977 51.94506836 C3.01912031 51.940033 0.37198365 51.93320437 -2.27514648 51.92456055 C-6.07536507 51.91246021 -9.87554695 51.90676378 -13.67578125 51.90234375 C-14.86335526 51.89718246 -16.05092926 51.89202118 -17.27449036 51.88670349 C-18.37540512 51.88662796 -19.47631989 51.88655243 -20.6105957 51.88647461 C-21.58100296 51.884254 -22.55141022 51.88203339 -23.55122375 51.87974548 C-26.13875981 51.89663367 -26.13875981 51.89663367 -29 53 C-30.69882448 55.49759982 -30.69882448 55.49759982 -32 58 C-32.33 57.34 -32.66 56.68 -33 56 C-32.26586914 54.27368164 -32.26586914 54.27368164 -31.03515625 52.16015625 C-30.57246338 51.35731201 -30.10977051 50.55446777 -29.63305664 49.72729492 C-29.11477295 48.8479126 -28.59648926 47.96853027 -28.0625 47.0625 C-27.26670532 45.69218628 -27.26670532 45.69218628 -26.45483398 44.29418945 C-24.64680187 41.1900083 -22.82469703 38.09441283 -21 35 C-20.31239305 33.8311176 -19.62489557 32.66217079 -18.9375 31.49316406 C-5.89826993 9.33040387 -5.89826993 9.33040387 0 0 Z " fill="#041F41" transform="translate(512,508)"/>
<path d="M0 0 C0.66 0 1.32 0 2 0 C-0.5606951 7.21650438 -4.70791318 13.70493933 -9 20 C-10.0064275 21.66279327 -11.00585407 23.32983484 -12 25 C-14.23779869 28.70446405 -16.4122443 32.29469316 -19.1875 35.625 C-21.26090299 38.34187289 -22.0037334 40.7455291 -23 44 C-25.06729513 48.72524602 -27.62230539 52.16586017 -31 56 C-31.33 55.34 -31.66 54.68 -32 54 C-31.360625 53.0925 -30.72125 52.185 -30.0625 51.25 C-28.38571047 48.60778619 -27.46310002 47.0101501 -27 44 C-26.34 44 -25.68 44 -25 44 C-24.7215625 42.576875 -24.7215625 42.576875 -24.4375 41.125 C-23.16934436 36.64598222 -20.57007546 33.37211971 -17.8515625 29.65234375 C-15.49187472 26.2721159 -13.61005754 22.7287198 -11.68359375 19.08984375 C-9.61406181 15.29170045 -7.414493 11.58240222 -5.1875 7.875 C-4.59122803 6.87883667 -4.59122803 6.87883667 -3.98291016 5.86254883 C-1.13040559 1.13040559 -1.13040559 1.13040559 0 0 Z " fill="#2CEAF1" transform="translate(477,329)"/>
<path d="M0 0 C0.5563916 0.32564438 1.1127832 0.65128876 1.68603516 0.98680115 C4.33904431 2.14845485 6.1362932 2.2357217 9.0234375 2.21118164 C10.0292688 2.20784317 11.0351001 2.2045047 12.07141113 2.20106506 C13.16159546 2.18756516 14.25177979 2.17406525 15.375 2.16015625 C16.51642456 2.15459213 17.65784912 2.14902802 18.8338623 2.14329529 C21.28469213 2.13087288 23.73550341 2.11421176 26.1862793 2.09375 C32.55119132 2.04159529 38.91616185 2.02175486 45.28125 2.00390625 C46.54279907 1.99996857 47.80434814 1.99603088 49.10412598 1.99197388 C59.90954367 1.97153499 70.70046835 2.1556766 81.5 2.5 C82.2621582 2.52409943 83.02431641 2.54819885 83.80957031 2.57302856 C87.873504 2.70380917 91.93688353 2.84562128 96 3 C95.34 4.65 94.68 6.3 94 8 C93.505 6.02 93.505 6.02 93 4 C62.97 4 32.94 4 2 4 C1.34 2.68 0.68 1.36 0 0 Z " fill="#2264CE" transform="translate(373,578)"/>
<path d="M0 0 C1.0828125 0.32597168 2.165625 0.65194336 3.28125 0.98779297 C8.68474928 2.3314098 13.96028104 2.25080281 19.5 2.1953125 C21.11442993 2.19106766 21.11442993 2.19106766 22.76147461 2.18673706 C26.17443299 2.17560731 29.5871219 2.15051595 33 2.125 C35.32421494 2.11496089 37.64843402 2.10583667 39.97265625 2.09765625 C45.64852831 2.0756916 51.32424489 2.04228625 57 2 C57 2.33 57 2.66 57 3 C37.34812234 4.31955054 17.68416705 4.09900726 -2 4 C-1.34 2.68 -0.68 1.36 0 0 Z " fill="#12153E" transform="translate(229,755)"/>
<path d="M0 0 C0.66 1.32 1.32 2.64 2 4 C1.30508957 3.99777939 0.61017914 3.99555878 -0.10578918 3.99327087 C-6.65353555 3.97323675 -13.20127337 3.95800991 -19.74904346 3.94818783 C-23.1153424 3.94296846 -26.48161602 3.93588797 -29.84790039 3.92456055 C-33.71761755 3.91246101 -37.58729866 3.90676396 -41.45703125 3.90234375 C-42.66647903 3.89718246 -43.87592682 3.89202118 -45.12202454 3.88670349 C-46.24296005 3.88662796 -47.36389557 3.88655243 -48.51879883 3.88647461 C-49.50697098 3.884254 -50.49514313 3.88203339 -51.51325989 3.87974548 C-54.13278349 3.89424144 -54.13278349 3.89424144 -57 5 C-58.69882448 7.49759982 -58.69882448 7.49759982 -60 10 C-60.33 9.34 -60.66 8.68 -61 8 C-59.68 5.69 -58.36 3.38 -57 1 C-38.19 1.33 -19.38 1.66 0 2 C0 1.34 0 0.68 0 0 Z " fill="#153074" transform="translate(540,556)"/>
<path d="M0 0 C0.66 0.33 1.32 0.66 2 1 C1.01587697 3.87035884 0.04550124 5.94453361 -1.890625 8.3046875 C-4.06307271 11.0805929 -5.49390815 13.75751802 -7 16.9375 C-12.52239414 28.26119707 -12.52239414 28.26119707 -16 30 C-15.42740986 26.15546618 -14.32532977 23.5234583 -12.25 20.25 C-10.2015169 16.95674488 -8.22822098 13.65716405 -6.375 10.25 C-4.4225578 6.69263768 -2.30932972 3.33569848 0 0 Z " fill="#45EBEC" transform="translate(512,269)"/>
<path d="M0 0 C0.66 0.33 1.32 0.66 2 1 C-0.04275206 4.55742484 -2.08751439 8.11368602 -4.1340332 11.66894531 C-4.82792711 12.87501815 -5.52129975 14.08139105 -6.21411133 15.28808594 C-10.02951589 21.93267496 -13.88103065 28.53761702 -18 35 C-18.33 34.34 -18.66 33.68 -19 33 C-18.05774331 30.73316523 -17.06326787 28.61138677 -15.9375 26.4375 C-15.45531006 25.48967651 -15.45531006 25.48967651 -14.96337891 24.52270508 C-12.71530477 20.18111883 -10.22270953 16.11331549 -7.41796875 12.10546875 C-5.39369176 9.09972413 -3.69236302 5.94110388 -1.98046875 2.75 C-1 1 -1 1 0 0 Z " fill="#C5ACFA" transform="translate(547,444)"/>
<path d="M0 0 C0.33 0.66 0.66 1.32 1 2 C-0.76377768 6.00650283 -2.93490636 9.80591786 -5.05859375 13.6315918 C-6.11752191 15.54895966 -7.1488982 17.47950274 -8.1796875 19.41210938 C-8.84991734 20.63111432 -9.5217417 21.8492442 -10.1953125 23.06640625 C-10.80391113 24.17959229 -11.41250977 25.29277832 -12.03955078 26.43969727 C-14 29 -14 29 -16.73779297 29.87084961 C-17.48432129 29.91346924 -18.23084961 29.95608887 -19 30 C-18.29875 29.236875 -17.5975 28.47375 -16.875 27.6875 C-13.74281868 23.95743791 -11.58551249 19.78713861 -9.33203125 15.48828125 C-8 13 -8 13 -6 10 C-5.566875 8.5459375 -5.566875 8.5459375 -5.125 7.0625 C-3.92186838 3.78730836 -2.6067869 2.25921531 0 0 Z " fill="#639EED" transform="translate(485,551)"/>
<path d="M0 0 C0.33 0.66 0.66 1.32 1 2 C1.7734375 1.97679687 2.546875 1.95359375 3.34375 1.9296875 C18.13646532 1.67337808 18.13646532 1.67337808 23 5.625 C23.33 6.07875 23.66 6.5325 24 7 C20.49269256 6.46041424 17.06922202 5.77915564 13.625 4.9375 C12.08433933 4.62007745 10.54267498 4.30748377 9 4 C8.31550781 3.81824219 7.63101563 3.63648438 6.92578125 3.44921875 C4.46845882 3.04851588 3.30646061 2.99797602 1 4 C-2.16457579 7.72366894 -4.6178937 11.74261852 -7 16 C-7.33 15.34 -7.66 14.68 -8 14 C-6.75717988 11.54961707 -5.47117661 9.226675 -4.0625 6.875 C-3.48338867 5.88693359 -3.48338867 5.88693359 -2.89257812 4.87890625 C-1.93553422 3.248387 -0.96867185 1.62363816 0 0 Z " fill="#5E31A6" transform="translate(566,414)"/>
<path d="M0 0 C0.83346493 2.33370181 1.18643419 3.53391452 0.25 5.875 C-0.1625 6.57625 -0.575 7.2775 -1 8 C-1.45375 9.010625 -1.9075 10.02125 -2.375 11.0625 C-4 14 -4 14 -6.125 15.5625 C-8.61696305 17.47300501 -8.46056608 18.99458243 -9 22 C-9.99 22.66 -10.98 23.32 -12 24 C-11.74337755 22.55989519 -11.46909179 21.1229313 -11.1875 19.6875 C-11.03667969 18.88699219 -10.88585937 18.08648437 -10.73046875 17.26171875 C-9.91205223 14.72769112 -8.91140191 13.79099864 -7 12 C-6.67 11.01 -6.34 10.02 -6 9 C-5.34 9 -4.68 9 -4 9 C-4 8.34 -4 7.68 -4 7 C-3.34 7 -2.68 7 -2 7 C-1.34 4.69 -0.68 2.38 0 0 Z " fill="#0999C6" transform="translate(422,421)"/>
<path d="M0 0 C0.66 0 1.32 0 2 0 C0.53171057 5.17935061 -1.81491263 9.34373412 -4.625 13.875 C-5.04523437 14.56335938 -5.46546875 15.25171875 -5.8984375 15.9609375 C-6.92692472 17.64391658 -7.962721 19.32242532 -9 21 C-9.33 20.34 -9.66 19.68 -10 19 C-8.890625 16.06640625 -8.890625 16.06640625 -7.25 12.5625 C-6.71890625 11.40878906 -6.1878125 10.25507813 -5.640625 9.06640625 C-4.23232713 6.43423048 -3.11755121 4.98976795 -1 3 C-0.67 2.01 -0.34 1.02 0 0 Z " fill="#B0A9FA" transform="translate(526,479)"/>
<path d="M0 0 C0.33 0.99 0.66 1.98 1 3 C-0.3125 5.4375 -0.3125 5.4375 -2 8 C-3.12282492 10.11355279 -4.03682727 12.10764894 -4.8125 14.375 C-6.37218468 17.82272402 -8.49660323 20.16720892 -11 23 C-11.33 22.34 -11.66 21.68 -12 21 C-11.0409375 19.63875 -11.0409375 19.63875 -10.0625 18.25 C-8.38571047 15.60778619 -7.46310002 14.0101501 -7 11 C-6.34 11 -5.68 11 -5 11 C-4.5978125 9.39125 -4.5978125 9.39125 -4.1875 7.75 C-3.13772173 4.43491072 -2.25387672 2.56122354 0 0 Z " fill="#1AC1D9" transform="translate(457,362)"/>
<path d="M0 0 C0.66 0 1.32 0 2 0 C0.69389223 3.53086549 -0.84884949 6.55718156 -2.9375 9.6875 C-3.69353516 10.83798828 -3.69353516 10.83798828 -4.46484375 12.01171875 C-6 14 -6 14 -9 16 C-7.63498381 12.33357971 -5.97203048 9.08922939 -3.9375 5.75 C-3.41027344 4.87859375 -2.88304687 4.0071875 -2.33984375 3.109375 C-1 1 -1 1 0 0 Z " fill="#36E4EC" transform="translate(477,329)"/>
<path d="M0 0 C0.144375 0.598125 0.28875 1.19625 0.4375 1.8125 C0.8872439 3.56150404 1.42892341 5.28677023 2 7 C2.63808594 7.04898437 3.27617188 7.09796875 3.93359375 7.1484375 C4.75988281 7.22320312 5.58617187 7.29796875 6.4375 7.375 C7.26121094 7.44460938 8.08492187 7.51421875 8.93359375 7.5859375 C9.95646484 7.79089844 9.95646484 7.79089844 11 8 C11.33 8.66 11.66 9.32 12 10 C7.05 9.67 2.1 9.34 -3 9 C-2.24872886 5.24364431 -1.75994274 3.16789693 0 0 Z " fill="#1D255D" transform="translate(570,407)"/>
<path d="M0 0 C0.66 0.33 1.32 0.66 2 1 C0.50195817 5.4941255 -1.81802185 9.48754934 -5 13 C-5.99 13.33 -6.98 13.66 -8 14 C-6.6744419 10.37723685 -5.05653045 7.36494652 -2.875 4.1875 C-2.33617187 3.39730469 -1.79734375 2.60710937 -1.2421875 1.79296875 C-0.83226562 1.20128906 -0.42234375 0.60960937 0 0 Z " fill="#4DD6DA" transform="translate(512,269)"/>
<path d="M0 0 C0.33 0.99 0.66 1.98 1 3 C-1.819647 8.639294 -5.45775162 13.79289488 -9 19 C-9.33 18.34 -9.66 17.68 -10 17 C-9.19555664 15.21240234 -9.19555664 15.21240234 -7.91015625 13.0859375 C-7.45576172 12.32539063 -7.00136719 11.56484375 -6.53320312 10.78125 C-6.04787109 9.9871875 -5.56253906 9.193125 -5.0625 8.375 C-4.34030273 7.17230469 -4.34030273 7.17230469 -3.60351562 5.9453125 C-2.40943235 3.95911458 -1.20804799 1.97772458 0 0 Z " fill="#6737C6" transform="translate(533,471)"/>
<path d="M0 0 C0.66 0.33 1.32 0.66 2 1 C0.54785715 3.482985 -0.91130402 5.96133947 -2.375 8.4375 C-2.7875 9.14455078 -3.2 9.85160156 -3.625 10.58007812 C-4.02460937 11.25361328 -4.42421875 11.92714844 -4.8359375 12.62109375 C-5.20251465 13.2442749 -5.5690918 13.86745605 -5.94677734 14.50952148 C-7 16 -7 16 -9 17 C-7.57997238 13.24069983 -5.87350167 9.77000304 -3.9375 6.25 C-3.14666016 4.80367188 -3.14666016 4.80367188 -2.33984375 3.328125 C-1 1 -1 1 0 0 Z " fill="#D2B0F9" transform="translate(547,444)"/>
<path d="M0 0 C0.33 0.66 0.66 1.32 1 2 C-0.2701593 4.4042301 -1.58276311 6.68766612 -3 9 C-3.515625 9.94875 -4.03125 10.8975 -4.5625 11.875 C-6 14 -6 14 -9 15 C-7.73273203 10.45895645 -6.08155393 7.54845604 -3 4 C-1.99426222 2.67098936 -0.99204592 1.33926199 0 0 Z " fill="#0FAACD" transform="translate(443,387)"/>
<path d="M0 0 C0.66 0 1.32 0 2 0 C-0.06461022 6.82909533 -2.81207395 11.09250238 -8 16 C-6.57250019 12.20950293 -4.83763458 8.72877544 -2.875 5.1875 C-2.33617187 4.21167969 -1.79734375 3.23585938 -1.2421875 2.23046875 C-0.83226562 1.49441406 -0.42234375 0.75835937 0 0 Z " fill="#6834BB" transform="translate(552,438)"/>
<path d="M0 0 C0.66 0.33 1.32 0.66 2 1 C1.04600922 2.79398267 0.08665974 4.58511655 -0.875 6.375 C-1.40867187 7.37273437 -1.94234375 8.37046875 -2.4921875 9.3984375 C-4 12 -4 12 -6 14 C-5.62257767 7.83543524 -3.84129692 4.82624485 0 0 Z " fill="#42EBED" transform="translate(493,302)"/>
<path d="M0 0 C7.59 0 15.18 0 23 0 C22.34 1.65 21.68 3.3 21 5 C20.67 3.68 20.34 2.36 20 1 C13.4 1 6.8 1 0 1 C0 0.67 0 0.34 0 0 Z " fill="#2C6BE4" transform="translate(446,581)"/>
<path d="M0 0 C0.33 0.66 0.66 1.32 1 2 C-0.24493748 4.28974316 -1.52641528 6.44190034 -2.9375 8.625 C-3.32357422 9.23601562 -3.70964844 9.84703125 -4.10742188 10.4765625 C-5.06446326 11.9889242 -6.03132811 13.49506117 -7 15 C-7.33 14.34 -7.66 13.68 -8 13 C-6.85546875 10.46875 -6.85546875 10.46875 -5.1875 7.5 C-4.64480469 6.5203125 -4.10210937 5.540625 -3.54296875 4.53125 C-2 2 -2 2 0 0 Z " fill="#9EADF5" transform="translate(515,500)"/>
<path d="M0 0 C0.33 0.66 0.66 1.32 1 2 C0.00390625 4.1640625 0.00390625 4.1640625 -1.4375 6.625 C-1.91058594 7.44226563 -2.38367188 8.25953125 -2.87109375 9.1015625 C-3.24363281 9.72804688 -3.61617188 10.35453125 -4 11 C-4.33 11 -4.66 11 -5 11 C-5.3125 8.3125 -5.3125 8.3125 -5 5 C-2.5 2.125 -2.5 2.125 0 0 Z " fill="#72A7F0" transform="translate(485,551)"/>
<path d="M0 0 C0.66 0.66 1.32 1.32 2 2 C1.05016642 3.50539661 0.08988109 5.00420347 -0.875 6.5 C-1.40867187 7.3353125 -1.94234375 8.170625 -2.4921875 9.03125 C-2.98976563 9.6809375 -3.48734375 10.330625 -4 11 C-4.66 11 -5.32 11 -6 11 C-4.54955729 6.89041233 -2.48889248 3.56741255 0 0 Z " fill="#149DD6" transform="translate(393,473)"/>
<path d="M0 0 C1.65 0 3.3 0 5 0 C5.33 0.66 5.66 1.32 6 2 C6.99 2 7.98 2 9 2 C9 2.66 9 3.32 9 4 C9.99 4.33 10.98 4.66 12 5 C7.6822542 4.49202991 3.96697886 3.80317221 0 2 C0 1.34 0 0.68 0 0 Z " fill="#763DB1" transform="translate(667,752)"/>
<path d="M0 0 C0.33 0.66 0.66 1.32 1 2 C-0.21484375 4.3828125 -0.21484375 4.3828125 -1.9375 7.125 C-2.50339844 8.03507813 -3.06929688 8.94515625 -3.65234375 9.8828125 C-4.09707031 10.58148437 -4.54179687 11.28015625 -5 12 C-5.578125 10.08984375 -5.578125 10.08984375 -6 8 C-4.75 6.5625 -4.75 6.5625 -3 5 C-1.96642853 3.35394174 -0.95939668 1.69036558 0 0 Z " fill="#80A9EA" transform="translate(498,529)"/>
<path d="M0 0 C3.29078593 2.79716804 5.06305458 6.19528578 7 10 C6.67 10.66 6.34 11.32 6 12 C2.44992282 8.0949151 1.18180084 5.02265357 0 0 Z " fill="#A264C5" transform="translate(702,596)"/>
<path d="M0 0 C1 3 1 3 -0.25 6.0625 C-2 9 -2 9 -5 11 C-3.77472971 6.94718288 -2.30119506 3.55639236 0 0 Z " fill="#26E1EF" transform="translate(463,352)"/>
<path d="M0 0 C0.66 0 1.32 0 2 0 C0.06382979 6.70212766 0.06382979 6.70212766 -3 9 C-3.66 9 -4.32 9 -5 9 C-3.50079488 5.88626628 -1.91847864 2.87771795 0 0 Z " fill="#BAAEFC" transform="translate(526,479)"/>
<path d="M0 0 C0.66 0.33 1.32 0.66 2 1 C0.44499019 4.81684226 -2.03595495 7.19195732 -5 10 C-3.66511872 6.40608886 -2.03977277 3.24509304 0 0 Z " fill="#18E3F4" transform="translate(450,375)"/>
<path d="M0 0 C0.33 0 0.66 0 1 0 C1.25 2.8125 1.25 2.8125 1 6 C-1 7.875 -1 7.875 -3 9 C-2.44271087 5.65626525 -1.64826111 2.96687001 0 0 Z " fill="#43E1E4" transform="translate(499,290)"/>
<path d="M0 0 C0.66 0.33 1.32 0.66 2 1 C0.68 3.31 -0.64 5.62 -2 8 C-2.66 8 -3.32 8 -4 8 C-4 7.01 -4 6.02 -4 5 C-3.34 5 -2.68 5 -2 5 C-1.7834375 4.0409375 -1.7834375 4.0409375 -1.5625 3.0625 C-1 1 -1 1 0 0 Z " fill="#7AA8EB" transform="translate(490,542)"/>
</svg>
